<svg width="15" height="15" viewBox="0 0 24 24" fill="none" xmlns="http://www.w3.org/2000/svg"><path d="M22.286 19.817c0 2.006-.955 2.469-2.132 2.469s-2.131-.469-2.131-2.469.954-4.788 2.131-4.788c1.177 0 2.132 2.783 2.132 4.788Z" fill="url(#a)"/><path d="M20.154 15.029a.706.706 0 0 0-.154.017c.686.211 1.183 1.811.389 1.737 0 0 .64.617.32 1.04 0 0 .543.423.114 1.137-.354.583-.703.537-.703.537s.075.715-.474.926c-.377.149-.937.726-1.252 1.074.126.2.28.355.458.475l1.04.314c.085.006.171.011.262.011 1.178 0 2.132-.468 2.132-2.468 0-2.017-.954-4.8-2.132-4.8Z" fill="url(#b)"/><path d="M20.92 20.903c-.954.617-1.657.171-2.617.417.366.754 1.057.966 1.851.966 1.177 0 2.132-.469 2.132-2.469 0-1.223-.355-2.743-.903-3.737.571 1.794.703 4.069-.463 4.823Z" fill="url(#c)"/><path d="M5.977 19.817c0 2.006-.954 2.469-2.131 2.469-1.177 0-2.132-.469-2.132-2.469s.955-4.788 2.132-4.788 2.131 2.783 2.131 4.788Z" fill="url(#d)"/><path d="M3.846 15.029a.705.705 0 0 0-.154.017c.685.211 1.183 1.811.388 1.737 0 0 .64.617.32 1.04 0 0 .543.423.115 1.137-.355.583-.703.537-.703.537s.074.715-.475.926c-.377.143-.937.72-1.251 1.069.126.2.28.354.457.474l1.04.314c.086.006.172.012.263.012 1.177 0 2.131-.469 2.131-2.469 0-2.011-.954-4.794-2.131-4.794Z" fill="url(#e)"/><path d="M4.606 20.903c-.955.617-1.657.171-2.617.417.365.754 1.057.966 1.85.966 1.178 0 2.132-.469 2.132-2.469 0-1.223-.354-2.743-.902-3.737.57 1.794.708 4.069-.463 4.823Z" fill="url(#f)"/><path d="m19.663 8.349-2.292-.571V3.863h2.292V8.35Z" fill="url(#g)"/><path d="M18.943 4.92v3.252l.726.183V3.863H17.37v.383h.892c.377 0 .68.303.68.674Z" fill="url(#h)"/><path d="M19.52 10.069 12 3.766l-7.52 6.303v12.217h15.04V10.068Z" fill="#fff"/><path opacity=".5" d="M19.52 10.069 12 3.766l-7.52 6.303v12.217h15.04V10.068Z" fill="url(#i)"/><path d="M13.554 8.012A1.607 1.607 0 0 0 12 6.806c-.748 0-1.377.514-1.554 1.206H10.4v.4c0 .886.72 1.606 1.606 1.606.886 0 1.606-.72 1.606-1.606v-.4h-.058Z" fill="url(#j)"/><path d="M4.594 19.297h14.812a.23.23 0 0 1 .228.229v2.76H4.366v-2.76a.23.23 0 0 1 .228-.229Z" fill="url(#k)"/><path d="M19.64 21.406H4.366v.057H19.64v-.057Z" fill="url(#l)"/><path d="M19.64 20.354H4.366v.057H19.64v-.057Z" fill="url(#m)"/><path d="M19.406 19.297H4.594a.23.23 0 0 0-.228.229H19.64a.238.238 0 0 0-.234-.229Z" fill="url(#n)"/><path d="M11.303 11.88H6.126v10.366h5.177V11.88Z" fill="url(#o)"/><path d="M6.56 12.36v9.446h.046V12.36h4.268v-.045H6.56v.045Z" fill="#643800"/><path d="M6.56 21.806h4.314v-9.492l-.045.046v9.4H6.606l-.046.046Z" fill="url(#p)"/><path d="M10.829 21.76H6.606v-9.4h4.223v9.4Z" fill="url(#q)"/><path d="M7.674 12.354h-.097v8.366h.097v-8.365Z" fill="url(#r)"/><path d="M8.766 12.354h-.097v8.366h.097v-8.365Z" fill="url(#s)"/><path d="M9.851 12.354h-.097v8.366h.097v-8.365Z" fill="url(#t)"/><path d="m2.857 9.692-.297-.589L4.794 7.55v1.486l-1.937.657Z" fill="url(#u)"/><path d="M4.794 8.126V7.29l2.4-1.663v1.48l-2.4 1.018Z" fill="url(#v)"/><path d="M7.194 6.131v-.828L9.6 3.634V5.12L7.194 6.131Z" fill="url(#w)"/><path d="M9.6 4.212v-.835L12 1.714v1.48L9.6 4.212Z" fill="url(#x)"/><path d="m21.143 9.692.297-.589-2.229-1.554v1.486l1.932.657Z" fill="url(#y)"/><path d="M19.212 8.126V7.29l-2.406-1.663v1.48l2.406 1.018Z" fill="url(#z)"/><path d="M16.806 6.131v-.828l-2.4-1.669V5.12l2.4 1.011Z" fill="url(#A)"/><path d="M14.406 4.212v-.835L12 1.714v1.48l2.406 1.018Z" fill="url(#B)"/><path d="m12 3.766 8.206 6.874.937-.948L12 2.035 2.857 9.692l.937.948L12 3.766Z" fill="url(#C)"/><path d="m12 2.378 8.943 7.49.2-.176L12 2.035 2.857 9.692l.177.177L12 2.378Z" fill="url(#D)"/><path d="M20.446 10.395 12 3.32l-8.446 7.075.24.245L12 3.766l8.206 6.874.24-.245Z" fill="url(#E)"/><path d="M4.48 10.868 12 4.571l7.52 6.297v-.8L12 3.767l-7.52 6.303v.8Z" fill="url(#F)"/><path d="M10.829 12.36H6.606v9.829h.114v-9.554h3.994v9.508h.115V12.36Z" fill="url(#G)"/><path d="M11.349 20.223H6.08a.115.115 0 0 0-.114.114v1.948h5.497v-1.948a.115.115 0 0 0-.114-.114Z" fill="url(#H)"/><path d="M12.034 22.286v-.972a.115.115 0 0 0-.114-.114H5.509a.115.115 0 0 0-.115.114v.972" fill="url(#I)"/><path d="M19.634 2.966H17.4a.168.168 0 0 0-.171.171v.669c0 .034.023.057.057.057h2.463c.034 0 .057-.023.057-.057v-.669a.172.172 0 0 0-.172-.171Z" fill="url(#J)"/><path d="M8.909 15.777a.215.215 0 0 0-.195-.126.215.215 0 0 0-.194.126.61.61 0 1 0 .8.583.587.587 0 0 0-.411-.583Zm-.195 1.011a.434.434 0 0 1-.183-.828.21.21 0 0 0 .183.108c.08 0 .143-.045.183-.108a.434.434 0 0 1-.183.829Z" fill="url(#K)"/><path d="M8.714 15.572a.612.612 0 1 0 .002 1.224.612.612 0 0 0-.002-1.224Zm0 1.046a.434.434 0 1 1 0-.869.434.434 0 0 1 0 .868Z" fill="url(#L)"/><path d="M8.715 15.68a.434.434 0 0 0-.435.434v.035a.436.436 0 0 1 .869 0v-.035a.434.434 0 0 0-.434-.434Z" fill="url(#M)"/><path d="M8.714 16.732a.613.613 0 0 1-.611-.577v.034a.612.612 0 0 0 1.223 0v-.034a.613.613 0 0 1-.612.577Z" fill="url(#N)"/><path d="M8.715 15.898a.211.211 0 1 0 0-.423.211.211 0 0 0 0 .423Z" fill="url(#O)"/><path d="M12 6.411c-.886 0-1.606.72-1.606 1.606 0 .886.72 1.606 1.606 1.606.886 0 1.606-.72 1.606-1.606 0-.886-.72-1.606-1.606-1.606Zm0 3.12a1.52 1.52 0 1 1-.001-3.039A1.52 1.52 0 0 1 12 9.532Z" fill="url(#P)"/><path d="M12 6.783c-.68 0-1.229.548-1.229 1.228 0 .68.55 1.229 1.23 1.229.68 0 1.228-.549 1.228-1.229S12.68 6.783 12 6.783Zm0 2.377a1.143 1.143 0 1 1 1.143-1.143A1.139 1.139 0 0 1 12 9.16Z" fill="url(#Q)"/><path d="M12 6.497a1.52 1.52 0 1 0-.001 3.039A1.52 1.52 0 0 0 12 6.497Zm0 2.72a1.2 1.2 0 1 1 0-2.4 1.2 1.2 0 0 1 0 2.4Z" fill="url(#R)"/><path d="M12 9.154a1.143 1.143 0 1 0 0-2.285 1.143 1.143 0 0 0 0 2.285Z" fill="url(#S)"/><path d="M12 7.263c.52 0 .96.32 1.143.771v-.022a1.143 1.143 0 1 0-2.286 0v.022A1.237 1.237 0 0 1 12 7.263Z" fill="url(#T)"/><path d="m15.429 14.703-2.88 2.88v.4l5.72-.023v-.4l-2.835-2.863" fill="url(#U)"/><path d="M18.229 11.898h-5.64v5.64h5.64v-5.64Z" fill="url(#V)"/><path d="M18.269 17.532v-5.68h-.046v5.68h-5.68v.045h5.726v-.045Z" fill="url(#W)"/><path d="M18.269 11.852h-5.726v5.725l.046-.045v-5.635h5.634l.046-.045Z" fill="url(#X)"/><path d="M13.017 12.371v4.726h.046v-4.726h4.725v-.045h-4.771v.045Z" fill="#643800"/><path d="M13.017 17.097h4.772v-4.771l-.046.045v4.68h-4.68l-.046.046Z" fill="#C86F34"/><path d="M17.743 17.052h-4.68v-4.68h4.68v4.68Z" fill="url(#Y)"/><path d="M17.743 14.52c-.806.943-2.006 1.143-2.611.874-.418-.183-1.252-.297-2.063-.137v1.794h4.68V14.52h-.006Z" fill="url(#Z)"/><path d="M17.743 17.052h-4.68v-4.68h4.68v4.68Z" fill="url(#aa)"/><path d="M13.063 12.372v4.68h.171v-4.338c0-.062.052-.114.115-.114h1.72c.034 0 .057.023.057.057v4.395h.697v-4.395c0-.034.023-.057.057-.057h1.577c.063 0 .115.052.115.114v4.338h.171v-4.68h-4.68Z" fill="url(#ab)"/><path d="M17.743 12.646h-4.68v-.274h4.68v.274Z" fill="url(#ac)"/><path d="M15.697 12.36v4.703h-.44V12.36h.44Z" fill="url(#ad)"/><path d="M15.697 12.36v.423h-.44v-.423h.44Z" fill="url(#ae)"/><path d="M10.863 8.126a1.142 1.142 0 1 0 2.263-.303c-.846-.103-1.029 1.005-2.263.303Z" fill="url(#af)"/><path d="M10.829 12.36H6.606v1.138h4.223V12.36Z" fill="url(#ag)"/><path d="M19.634 2.966h-.274V3a.573.573 0 0 1-.571.572h-1.56v.234c0 .034.023.057.057.057h2.463c.034 0 .057-.023.057-.057v-.669a.172.172 0 0 0-.172-.171Z" fill="url(#ah)"/><defs><linearGradient id="b" x1="21.463" y1="21.914" x2="18.264" y2="15.543" gradientUnits="userSpaceOnUse"><stop stop-color="#4B8C1C"/><stop offset="1" stop-color="#4B8C1C" stop-opacity="0"/></linearGradient><linearGradient id="e" x1="5.153" y1="21.914" x2="1.953" y2="15.543" gradientUnits="userSpaceOnUse"><stop stop-color="#4B8C1C"/><stop offset="1" stop-color="#4B8C1C" stop-opacity="0"/></linearGradient><linearGradient id="g" x1="18.359" y1="8.729" x2="18.55" y2="5.605" gradientUnits="userSpaceOnUse"><stop stop-color="#FCCE38"/><stop offset=".116" stop-color="#F2BC37"/><stop offset=".363" stop-color="#E09A36"/><stop offset=".599" stop-color="#D38235"/><stop offset=".817" stop-color="#CB7434"/><stop offset="1" stop-color="#C86F34"/></linearGradient><linearGradient id="h" x1="18.519" y1="-9.663" x2="18.519" y2="17.672" gradientUnits="userSpaceOnUse"><stop stop-color="#3C2200"/><stop offset="1" stop-color="#643800" stop-opacity="0"/></linearGradient><linearGradient id="i" x1="4.479" y1="13.027" x2="19.521" y2="13.027" gradientUnits="userSpaceOnUse"><stop stop-color="#FCD2A8"/><stop offset=".1" stop-color="#fff"/><stop offset=".9" stop-color="#fff"/><stop offset="1" stop-color="#FCD2A8"/></linearGradient><linearGradient id="j" x1="12.002" y1="7.104" x2="12.002" y2="10.438" gradientUnits="userSpaceOnUse"><stop stop-color="#8EA5A8"/><stop offset="1" stop-color="#8EA5A8" stop-opacity="0"/></linearGradient><linearGradient id="k" x1="12" y1="22.219" x2="12" y2="19.232" gradientUnits="userSpaceOnUse"><stop stop-color="#DEE7E8"/><stop offset="1" stop-color="#CFDCDE"/></linearGradient><linearGradient id="l" x1="12" y1="21.032" x2="12" y2="22.175" gradientUnits="userSpaceOnUse"><stop stop-color="#8EA5A8"/><stop offset="1" stop-color="#CFDCDE"/></linearGradient><linearGradient id="m" x1="12" y1="19.978" x2="12" y2="21.121" gradientUnits="userSpaceOnUse"><stop stop-color="#8EA5A8"/><stop offset="1" stop-color="#CFDCDE"/></linearGradient><linearGradient id="n" x1="12" y1="20.399" x2="12" y2="18.986" gradientUnits="userSpaceOnUse"><stop stop-color="#8EA5A8"/><stop offset="1" stop-color="#CFDCDE"/></linearGradient><linearGradient id="o" x1="9.593" y1="27.113" x2="8.304" y2="12.309" gradientUnits="userSpaceOnUse"><stop stop-color="#3C2200"/><stop offset="1" stop-color="#A3541E"/></linearGradient><linearGradient id="p" x1="8.716" y1="10.431" x2="8.716" y2="28.128" gradientUnits="userSpaceOnUse"><stop stop-color="#3C2200"/><stop offset="1" stop-color="#A3541E"/></linearGradient><linearGradient id="r" x1="7.579" y1="16.538" x2="7.677" y2="16.538" gradientUnits="userSpaceOnUse"><stop stop-color="#3C2200" stop-opacity=".5"/><stop offset="1" stop-color="#3C2200" stop-opacity="0"/></linearGradient><linearGradient id="s" x1="8.667" y1="16.538" x2="8.765" y2="16.538" gradientUnits="userSpaceOnUse"><stop stop-color="#3C2200" stop-opacity=".5"/><stop offset="1" stop-color="#3C2200" stop-opacity="0"/></linearGradient><linearGradient id="t" x1="9.754" y1="16.538" x2="9.853" y2="16.538" gradientUnits="userSpaceOnUse"><stop stop-color="#3C2200" stop-opacity=".5"/><stop offset="1" stop-color="#3C2200" stop-opacity="0"/></linearGradient><linearGradient id="u" x1="3.677" y1="7.551" x2="3.677" y2="9.692" gradientUnits="userSpaceOnUse"><stop stop-color="#3C2200"/><stop offset="1" stop-color="#A3541E"/></linearGradient><linearGradient id="v" x1="5.995" y1="5.628" x2="5.995" y2="8.123" gradientUnits="userSpaceOnUse"><stop stop-color="#3C2200"/><stop offset="1" stop-color="#A3541E"/></linearGradient><linearGradient id="w" x1="8.398" y1="3.637" x2="8.398" y2="6.132" gradientUnits="userSpaceOnUse"><stop stop-color="#3C2200"/><stop offset="1" stop-color="#A3541E"/></linearGradient><linearGradient id="x" x1="10.801" y1="1.714" x2="10.801" y2="4.209" gradientUnits="userSpaceOnUse"><stop stop-color="#3C2200"/><stop offset="1" stop-color="#A3541E"/></linearGradient><linearGradient id="y" x1="20.327" y1="7.551" x2="20.327" y2="9.692" gradientUnits="userSpaceOnUse"><stop stop-color="#3C2200"/><stop offset="1" stop-color="#A3541E"/></linearGradient><linearGradient id="z" x1="18.01" y1="5.628" x2="18.01" y2="8.123" gradientUnits="userSpaceOnUse"><stop stop-color="#3C2200"/><stop offset="1" stop-color="#A3541E"/></linearGradient><linearGradient id="A" x1="15.607" y1="3.637" x2="15.607" y2="6.132" gradientUnits="userSpaceOnUse"><stop stop-color="#3C2200"/><stop offset="1" stop-color="#A3541E"/></linearGradient><linearGradient id="B" x1="13.204" y1="1.714" x2="13.204" y2="4.209" gradientUnits="userSpaceOnUse"><stop stop-color="#3C2200"/><stop offset="1" stop-color="#A3541E"/></linearGradient><linearGradient id="C" x1="12" y1="-2.853" x2="12" y2="9.821" gradientUnits="userSpaceOnUse"><stop stop-color="#3C2200"/><stop offset="1" stop-color="#A3541E"/></linearGradient><linearGradient id="D" x1="12" y1="4.303" x2="12" y2="15.108" gradientUnits="userSpaceOnUse"><stop stop-color="#3C2200"/><stop offset="1" stop-color="#A3541E"/></linearGradient><linearGradient id="E" x1="12" y1="4.208" x2="12" y2="13.481" gradientUnits="userSpaceOnUse"><stop stop-color="#3C2200"/><stop offset="1" stop-color="#A3541E"/></linearGradient><linearGradient id="F" x1="12" y1="11.71" x2="12" y2="-2.211" gradientUnits="userSpaceOnUse"><stop stop-color="#7A4400" stop-opacity="0"/><stop offset="1" stop-color="#A3541E"/></linearGradient><linearGradient id="G" x1="5.009" y1="5.301" x2="12.523" y2="29.571" gradientUnits="userSpaceOnUse"><stop stop-color="#3C2200"/><stop offset="1" stop-color="#3C2200" stop-opacity="0"/></linearGradient><linearGradient id="H" x1="8.716" y1="20.224" x2="8.716" y2="22.285" gradientUnits="userSpaceOnUse"><stop stop-color="#FCCE38"/><stop offset=".116" stop-color="#F2BC37"/><stop offset=".363" stop-color="#E09A36"/><stop offset=".599" stop-color="#D38235"/><stop offset=".817" stop-color="#CB7434"/><stop offset="1" stop-color="#C86F34"/></linearGradient><linearGradient id="I" x1="8.716" y1="21.198" x2="8.716" y2="22.286" gradientUnits="userSpaceOnUse"><stop stop-color="#FCCE38"/><stop offset=".116" stop-color="#F2BC37"/><stop offset=".363" stop-color="#E09A36"/><stop offset=".599" stop-color="#D38235"/><stop offset=".817" stop-color="#CB7434"/><stop offset="1" stop-color="#C86F34"/></linearGradient><linearGradient id="J" x1="17.075" y1=".089" x2="19.987" y2="6.885" gradientUnits="userSpaceOnUse"><stop stop-color="#FCCE38"/><stop offset=".116" stop-color="#F2BC37"/><stop offset=".363" stop-color="#E09A36"/><stop offset=".599" stop-color="#D38235"/><stop offset=".817" stop-color="#CB7434"/><stop offset="1" stop-color="#C86F34"/></linearGradient><linearGradient id="K" x1="8.716" y1="18.363" x2="8.716" y2="14.857" gradientUnits="userSpaceOnUse"><stop stop-color="#3C2200"/><stop offset="1" stop-color="#3C2200" stop-opacity="0"/></linearGradient><linearGradient id="M" x1="8.716" y1="15.222" x2="8.716" y2="16.092" gradientUnits="userSpaceOnUse"><stop stop-color="#FCCE38"/><stop offset=".116" stop-color="#F2BC37"/><stop offset=".363" stop-color="#E09A36"/><stop offset=".599" stop-color="#D38235"/><stop offset=".817" stop-color="#CB7434"/><stop offset="1" stop-color="#C86F34"/></linearGradient><linearGradient id="N" x1="8.716" y1="16.023" x2="8.716" y2="16.746" gradientUnits="userSpaceOnUse"><stop stop-color="#FCCE38"/><stop offset=".116" stop-color="#F2BC37"/><stop offset=".363" stop-color="#E09A36"/><stop offset=".599" stop-color="#D38235"/><stop offset=".817" stop-color="#CB7434"/><stop offset="1" stop-color="#C86F34"/></linearGradient><linearGradient id="P" x1="12.784" y1="10.39" x2="10.493" y2="3.432" gradientUnits="userSpaceOnUse"><stop stop-color="#3C2200"/><stop offset="1" stop-color="#A3541E"/></linearGradient><linearGradient id="Q" x1="12.002" y1="6.737" x2="12.002" y2="11.023" gradientUnits="userSpaceOnUse"><stop stop-color="#3C2200"/><stop offset="1" stop-color="#A3541E"/></linearGradient><linearGradient id="R" x1="13.276" y1="11.338" x2="11.71" y2="7.253" gradientUnits="userSpaceOnUse"><stop stop-color="#3C2200"/><stop offset="1" stop-color="#A3541E"/></linearGradient><linearGradient id="S" x1="12.98" y1="10.27" x2="11.118" y2="5.975" gradientUnits="userSpaceOnUse"><stop offset=".176" stop-color="#D1F2FF"/><stop offset=".506" stop-color="#80DAFE"/></linearGradient><linearGradient id="T" x1="12.002" y1="5.735" x2="12.002" y2="8.37" gradientUnits="userSpaceOnUse"><stop stop-color="#008EE6"/><stop offset="1" stop-color="#0099D6" stop-opacity="0"/></linearGradient><linearGradient id="U" x1="15.408" y1="16.864" x2="15.408" y2="18.176" gradientUnits="userSpaceOnUse"><stop stop-color="#8EA5A8"/><stop offset="1" stop-color="#8EA5A8" stop-opacity="0"/></linearGradient><linearGradient id="V" x1="16.614" y1="20.932" x2="15.106" y2="13.162" gradientUnits="userSpaceOnUse"><stop stop-color="#3C2200"/><stop offset="1" stop-color="#A3541E"/></linearGradient><linearGradient id="W" x1="16.362" y1="16.886" x2="13.345" y2="10.032" gradientUnits="userSpaceOnUse"><stop stop-color="#3C2200"/><stop offset="1" stop-color="#A3541E"/></linearGradient><linearGradient id="X" x1="12.542" y1="14.712" x2="18.268" y2="14.712" gradientUnits="userSpaceOnUse"><stop stop-color="#3C2200"/><stop offset="1" stop-color="#A3541E"/></linearGradient><linearGradient id="Y" x1="15.405" y1="14.564" x2="15.405" y2="12.016" gradientUnits="userSpaceOnUse"><stop stop-color="#D1F2FF"/><stop offset=".668" stop-color="#80DAFE"/><stop offset="1" stop-color="#0099D6"/></linearGradient><linearGradient id="Z" x1="15.136" y1="10.586" x2="15.422" y2="16.122" gradientUnits="userSpaceOnUse"><stop stop-color="#0099D6"/><stop offset="1" stop-color="#0099D6" stop-opacity="0"/></linearGradient><linearGradient id="ab" x1="15.405" y1="9.018" x2="15.405" y2="18.356" gradientUnits="userSpaceOnUse"><stop stop-color="#0099D6"/><stop offset="1" stop-color="#0099D6" stop-opacity="0"/></linearGradient><linearGradient id="ac" x1="15.405" y1="12.366" x2="15.405" y2="12.622" gradientUnits="userSpaceOnUse"><stop stop-color="#008EE6"/><stop offset="1" stop-color="#0099D6" stop-opacity="0"/></linearGradient><linearGradient id="ae" x1="15.478" y1="12.359" x2="15.478" y2="12.784" gradientUnits="userSpaceOnUse"><stop stop-color="#3C2200"/><stop offset="1" stop-color="#3C2200" stop-opacity="0"/></linearGradient><linearGradient id="af" x1="10.23" y1="4.355" x2="12.654" y2="9.433" gradientUnits="userSpaceOnUse"><stop stop-color="#0099D6"/><stop offset="1" stop-color="#0099D6" stop-opacity="0"/></linearGradient><linearGradient id="ag" x1="8.716" y1="11.567" x2="8.716" y2="13.52" gradientUnits="userSpaceOnUse"><stop stop-color="#3C2200"/><stop offset="1" stop-color="#3C2200" stop-opacity="0"/></linearGradient><linearGradient id="ah" x1="17.793" y1=".93" x2="18.726" y2="4.187" gradientUnits="userSpaceOnUse"><stop stop-color="#FCCE38"/><stop offset=".116" stop-color="#F2BC37"/><stop offset=".363" stop-color="#E09A36"/><stop offset=".599" stop-color="#D38235"/><stop offset=".817" stop-color="#CB7434"/><stop offset="1" stop-color="#C86F34"/></linearGradient><radialGradient id="a" cx="0" cy="0" r="1" gradientUnits="userSpaceOnUse" gradientTransform="matrix(4.56751 0 0 4.63419 20.747 17.128)"><stop stop-color="#76AB50"/><stop offset="1" stop-color="#4B8C1C"/></radialGradient><radialGradient id="c" cx="0" cy="0" r="1" gradientUnits="userSpaceOnUse" gradientTransform="matrix(1.06215 5.19568 -3.1546 .64489 19.95 16.725)"><stop stop-color="#76AB50"/><stop offset="1" stop-color="#407817"/></radialGradient><radialGradient id="d" cx="0" cy="0" r="1" gradientUnits="userSpaceOnUse" gradientTransform="matrix(4.56751 0 0 4.63419 4.436 17.128)"><stop stop-color="#76AB50"/><stop offset="1" stop-color="#4B8C1C"/></radialGradient><radialGradient id="f" cx="0" cy="0" r="1" gradientUnits="userSpaceOnUse" gradientTransform="matrix(1.06215 5.19568 -3.1546 .6449 3.64 16.725)"><stop stop-color="#76AB50"/><stop offset="1" stop-color="#407817"/></radialGradient><radialGradient id="q" cx="0" cy="0" r="1" gradientUnits="userSpaceOnUse" gradientTransform="translate(9.022 16.005) scale(6.87622)"><stop stop-color="#A3541E"/><stop offset="1" stop-color="#643800"/></radialGradient><radialGradient id="L" cx="0" cy="0" r="1" gradientUnits="userSpaceOnUse" gradientTransform="translate(8.274 15.963) scale(1.72108)"><stop stop-color="#FCCE38"/><stop offset=".364" stop-color="#FCCE38"/><stop offset="1" stop-color="#C86F34"/></radialGradient><radialGradient id="O" cx="0" cy="0" r="1" gradientUnits="userSpaceOnUse" gradientTransform="matrix(.50116 0 0 .50116 8.747 15.64)"><stop stop-color="#FCCE38"/><stop offset=".009" stop-color="#FCCD38"/><stop offset=".375" stop-color="#FBB53A"/><stop offset=".715" stop-color="#FBA73B"/><stop offset="1" stop-color="#FBA23B"/></radialGradient><radialGradient id="aa" cx="0" cy="0" r="1" gradientUnits="userSpaceOnUse" gradientTransform="translate(14.516 15.3) scale(3.36528)"><stop stop-color="#fff" stop-opacity=".5"/><stop offset=".642" stop-color="#fff" stop-opacity="0"/></radialGradient><radialGradient id="ad" cx="0" cy="0" r="1" gradientUnits="userSpaceOnUse" gradientTransform="translate(15.22 15.547) scale(4.22273)"><stop stop-color="#A3541E"/><stop offset="1" stop-color="#643800"/></radialGradient></defs></svg>